<?xml version="1.0" encoding="utf-8"?>
<!-- Generator: Adobe Illustrator 25.0.0, SVG Export Plug-In . SVG Version: 6.00 Build 0)  -->
<svg version="1.1" id="Layer_1" xmlns="http://www.w3.org/2000/svg" xmlns:xlink="http://www.w3.org/1999/xlink" x="0px" y="0px"
	 viewBox="0 0 5000 4000" style="enable-background:new 0 0 5000 4000;" xml:space="preserve">
<style type="text/css">
	.st0{fill-rule:evenodd;clip-rule:evenodd;fill:#FFFFFF;}
</style>
<g>
	<path class="st0" d="M2444.6,728.83c12.35,22.74-63.52,74.77-165.98,131.29l9.53,347.94l-75.61,41.07l-65.9-320.53
		c-71.58,35.28-143.9,68.4-201.71,93.22l3.68,158.34l-34.18,18.56l-29.88-151.92c-34.88,13.74-56.94,20.79-58.45,18.01
		c-1.51-2.78,16.41-17.45,46.92-39.24l-111.18-107.75l34.18-18.57l130.83,89.27c52.51-35.14,120.01-78,188.88-119.01l-253.25-264.79
		l75.61-41.07l307.73,232.05C2348.24,741.03,2432.31,706.22,2444.6,728.83"/>
	<path class="st0" d="M2555.4,3271.17c-12.35-22.74,63.52-74.77,165.98-131.29l-9.53-347.94l75.6-41.07l65.9,320.53
		c71.59-35.28,143.9-68.4,201.71-93.22l-3.68-158.34l34.18-18.56l29.88,151.92c34.88-13.74,56.94-20.79,58.45-18.01
		s-16.41,17.45-46.92,39.24l111.17,107.75l-34.18,18.57l-130.83-89.27c-52.51,35.14-120.01,78-188.89,119.01l253.25,264.79
		l-75.61,41.07l-307.73-232.05C2651.76,3258.97,2567.68,3293.78,2555.4,3271.17"/>
	<path class="st0" d="M1377.57,1888.49c0,547.33,475.23,991.02,1061.47,991.02c30.48,0,60.67-1.2,90.5-3.56
		c0.27-124.43,40.35-239.52,108.17-333.2c-95.71,37.32-199.83,57.8-308.75,57.8c-469.53,0-850.17-380.63-850.17-850.17
		c0-224.02,86.68-427.75,228.28-579.61c-54.92,48.84-104.24,103.11-146.98,161.91c-26.13,36.74-50.16,75.07-71.86,114.72
		C1417.4,1580.26,1377.57,1730.03,1377.57,1888.49 M2439.04,2934.99c-512.87,0-945.29-321.58-1078.54-760.57
		c84.06,553.81,562.22,978.19,1139.5,978.19c33,0,65.68-1.39,97.98-4.11c-35.53-65.67-58.56-139.09-65.9-217.08
		C2501.4,2933.79,2470.37,2934.99,2439.04,2934.99z"/>
	<path class="st0" d="M3622.43,2111.51c0-547.33-475.23-991.02-1061.47-991.02c-30.48,0-60.67,1.2-90.5,3.56
		c-0.28,124.43-40.35,239.52-108.17,333.2c95.7-37.32,199.83-57.8,308.75-57.8c469.53,0,850.17,380.63,850.17,850.17
		c0,224.02-86.68,427.75-228.28,579.61c54.92-48.84,104.24-103.11,146.98-161.91c26.13-36.74,50.16-75.07,71.86-114.72
		C3582.6,2419.75,3622.43,2269.97,3622.43,2111.51 M2560.96,1065.02c512.87,0,945.29,321.59,1078.54,760.57
		c-84.07-553.81-562.22-978.19-1139.5-978.19c-33,0-65.68,1.39-97.98,4.11c35.53,65.67,58.56,139.09,65.9,217.08
		C2498.6,1066.22,2529.63,1065.02,2560.96,1065.02z"/>
</g>
</svg>
