<?xml version="1.0" encoding="utf-8"?>
<!-- Generator: Adobe Illustrator 25.0.0, SVG Export Plug-In . SVG Version: 6.00 Build 0)  -->
<svg version="1.1" id="Warstwa_1" xmlns="http://www.w3.org/2000/svg" xmlns:xlink="http://www.w3.org/1999/xlink" x="0px" y="0px"
	 viewBox="0 0 320 320" style="enable-background:new 0 0 320 320;" xml:space="preserve">
<style type="text/css">
	.st0{fill:#FFFFFF;}
</style>
<g>
	<g>
		<g>
			<g>
				<path class="st0" d="M39.3,138.6l255.9,6.2c9.4,0.2,16.8,7,16.8,15.2l0,0c0,8.2-7.4,15-16.8,15.2l-255.9,6.2
					C20,181.9,3.7,172.3,3.7,160l0,0C3.7,147.7,20,138.1,39.3,138.6z"/>
			</g>
			<g>
				<g>
					<path class="st0" d="M272.1,143l32-44.2c2.5-3.5,8.6-1.4,7.9,2.7l-8.4,52c-0.4,2.5-3.2,4-5.8,3.1l-23.6-7.8
						C271.6,148,270.6,145.1,272.1,143z"/>
				</g>
				<g>
					<path class="st0" d="M301.5,166.4l11.8,51.8c0.9,4.1-4.9,6.5-7.7,3.1l-34.5-42.1c-1.6-2-0.9-4.9,1.6-5.9l22.7-9.7
						C298,162.6,301,164,301.5,166.4z"/>
				</g>
			</g>
		</g>
		<g>
			<g>
				<g>
					<path class="st0" d="M85.2,174.1c0,0,67,142.7,78.9,142.7c11.9,0-11.9-151.6-14.2-153.9c-2.3-2.3-68.8-6.4-68.8-6.4L85.2,174.1
						z"/>
				</g>
				<g>
					<path class="st0" d="M93.5,208.3h42.1c1.3,0,2.3,1.1,2.3,2.3v11.8c0,1.3-1.1,2.3-2.3,2.3H93.5c-1.3,0-2.3-1.1-2.3-2.3v-11.8
						C91.1,209.3,92.2,208.3,93.5,208.3z"/>
				</g>
				<g>
					<path class="st0" d="M103.7,245.2h42.8c1.1,0,2,0.9,2,2v10.2c0,1.1-0.9,2-2,2h-42.8c-1.1,0-2-0.9-2-2v-10.2
						C101.7,246.1,102.6,245.2,103.7,245.2z"/>
				</g>
			</g>
			<g>
				<g>
					<path class="st0" d="M85.2,145.9c0,0,67-142.7,78.9-142.7c11.9,0-11.9,151.6-14.2,153.9c-2.3,2.3-68.8,6.4-68.8,6.4L85.2,145.9
						z"/>
				</g>
				<g>
					<path class="st0" d="M93.5,111.7h42.1c1.3,0,2.3-1.1,2.3-2.3V97.5c0-1.3-1.1-2.3-2.3-2.3H93.5c-1.3,0-2.3,1.1-2.3,2.3v11.8
						C91.1,110.7,92.2,111.7,93.5,111.7z"/>
				</g>
				<g>
					<path class="st0" d="M103.7,74.8h42.8c1.1,0,2-0.9,2-2V62.6c0-1.1-0.9-2-2-2h-42.8c-1.1,0-2,0.9-2,2v10.2
						C101.7,73.9,102.6,74.8,103.7,74.8z"/>
				</g>
			</g>
		</g>
	</g>
	<g>
		<line class="st0" x1="206" y1="48.6" x2="242.2" y2="48.6"/>
		<path class="st0" d="M242.2,51.5H206c-1.6,0-2.9-1.3-2.9-2.8s1.3-2.8,2.9-2.8h36.2c1.6,0,2.9,1.3,2.9,2.8S243.8,51.5,242.2,51.5z"
			/>
	</g>
	<g>
		<line class="st0" x1="148.5" y1="48.6" x2="195.4" y2="48.6"/>
		<path class="st0" d="M195.4,51.5h-46.9c-1.6,0-2.9-1.3-2.9-2.8s1.3-2.8,2.9-2.8h46.9c1.6,0,2.9,1.3,2.9,2.8S196.9,51.5,195.4,51.5
			z"/>
	</g>
	<g>
		<line class="st0" x1="155.6" y1="20.1" x2="281.1" y2="20.1"/>
		<path class="st0" d="M281.1,23H155.6c-1.6,0-2.9-1.3-2.9-2.9s1.3-2.9,2.9-2.9h125.5c1.6,0,2.9,1.3,2.9,2.9
			C283.9,21.7,282.7,23,281.1,23z"/>
	</g>
	<g>
		<line class="st0" x1="233.4" y1="83.3" x2="271.3" y2="83.3"/>
		<path class="st0" d="M271.3,86.2h-37.8c-1.6,0-2.9-1.3-2.9-2.8s1.3-2.8,2.9-2.8h37.8c1.6,0,2.9,1.3,2.9,2.8S272.9,86.2,271.3,86.2
			z"/>
	</g>
	<g>
		<line class="st0" x1="148.5" y1="83.3" x2="206" y2="83.3"/>
		<path class="st0" d="M206,86.2h-57.5c-1.6,0-2.9-1.3-2.9-2.8s1.3-2.8,2.9-2.8H206c1.6,0,2.9,1.3,2.9,2.8
			C208.9,84.9,207.6,86.2,206,86.2z"/>
	</g>
	<g>
		<line class="st0" x1="148.5" y1="231.1" x2="254.7" y2="231.1"/>
		<path class="st0" d="M254.7,233.9H148.5c-1.6,0-2.9-1.3-2.9-2.9s1.3-2.9,2.9-2.9h106.2c1.6,0,2.9,1.3,2.9,2.9
			S256.3,233.9,254.7,233.9z"/>
	</g>
	<g>
		<line class="st0" x1="291.8" y1="265.8" x2="313.4" y2="265.8"/>
		<path class="st0" d="M313.4,268.6h-21.6c-1.6,0-2.9-1.3-2.9-2.9s1.3-2.9,2.9-2.9h21.6c1.6,0,2.9,1.3,2.9,2.9
			S315,268.6,313.4,268.6z"/>
	</g>
	<g>
		<line class="st0" x1="204" y1="265.8" x2="271.4" y2="265.8"/>
		<path class="st0" d="M271.4,268.6H204c-1.6,0-2.9-1.3-2.9-2.9s1.3-2.9,2.9-2.9h67.4c1.6,0,2.9,1.3,2.9,2.9S273,268.6,271.4,268.6z
			"/>
	</g>
	<g>
		<line class="st0" x1="148.5" y1="265.8" x2="190.7" y2="265.8"/>
		<path class="st0" d="M190.7,268.6h-42.3c-1.6,0-2.9-1.3-2.9-2.9s1.3-2.9,2.9-2.9h42.3c1.6,0,2.9,1.3,2.9,2.9
			S192.3,268.6,190.7,268.6z"/>
	</g>
	<g>
		<line class="st0" x1="242.6" y1="300.5" x2="270.1" y2="300.5"/>
		<path class="st0" d="M270.1,303.3h-27.5c-1.6,0-2.9-1.3-2.9-2.9s1.3-2.9,2.9-2.9h27.5c1.6,0,2.9,1.3,2.9,2.9
			S271.7,303.3,270.1,303.3z"/>
	</g>
	<g>
		<line class="st0" x1="154.7" y1="300.5" x2="209.3" y2="300.5"/>
		<path class="st0" d="M209.3,303.3h-54.6c-1.6,0-2.9-1.3-2.9-2.9s1.3-2.9,2.9-2.9h54.6c1.6,0,2.9,1.3,2.9,2.9
			S210.9,303.3,209.3,303.3z"/>
	</g>
</g>
</svg>
